<svg xmlns="http://www.w3.org/2000/svg" viewBox="0 0 64 80" x="0px" y="0px"><title>homework-education-school-studying-home</title><g data-name="outline(ใช้ส่ง)"><path d="M61,25H57a1,1,0,0,0-1,1v5a1,1,0,0,0,1,1h3V45H54V29a4.688,4.688,0,0,0-2-4.069V11c0-2.9-1.576-6-6-6H44.162l-2.846-.949a1,1,0,0,0-1.2.482A9.385,9.385,0,0,0,39,8a5.309,5.309,0,0,0,3,4.69v5.483A3.921,3.921,0,0,0,46,22v2.256L36.854,27H28.477l1.452-3.628a1,1,0,0,0-1.858-.744L26.323,27H25a1,1,0,0,0-1,1v4H18.825a2.945,2.945,0,0,0,0-2H20a1,1,0,0,0,1-1V25a1,1,0,0,0-1-1H19V21a1,1,0,0,0-1-1H8a2.993,2.993,0,0,0-.78,5.884A2.877,2.877,0,0,0,7.184,28H6a1,1,0,0,0-1,1v3H3a1,1,0,0,0-1,1v8a1,1,0,0,0,1,1H5V62H7V55H26v7h2V42h2a1,1,0,0,0,1-1V34h7a.97.97,0,0,0,.274-.039L44,32.326V40H38a5.006,5.006,0,0,0-5,5V59.382l-1.447.723A1,1,0,0,0,32,62h7a1,1,0,0,0,1-1V47h2V62h2V51H60V62h2V26A1,1,0,0,0,61,25Zm-3,5V27h2v3ZM41,8a5.712,5.712,0,0,1,.523-1.771l2.161.72A1,1,0,0,0,44,7h2c3.306,0,4,2.175,4,4H43.146A3.313,3.313,0,0,1,41,8Zm3,10.173V13h6v7H46A1.922,1.922,0,0,1,44,18.173ZM50,22v2.114A5.34,5.34,0,0,0,49,24H48V22ZM26,29h2v3H26ZM8,22h9v2H8a1,1,0,0,1,0-2Zm1,5a1,1,0,0,1,1-1h9v2H10A1,1,0,0,1,9,27ZM7,30h9.154a1.014,1.014,0,0,1,0,2H7ZM26,53H7V42H26Zm3-13H4V34H29Zm16.6-9.8a1,1,0,0,0-.877-.163L37.86,32H30V29h7a.992.992,0,0,0,.287-.042L47.147,26h1.847a4.015,4.015,0,0,1,1.559.395A2.632,2.632,0,0,1,52,29V40H46V31A1,1,0,0,0,45.6,30.2ZM39,45a1,1,0,0,0-1,1V60H35V45a3,3,0,0,1,3-3H52v3H39Zm21,4H44V47H60Z"/><rect x="7" y="36" width="14" height="2"/><rect x="24" y="36" width="2" height="2"/><path d="M13,18a8,8,0,1,0-8-8A8.009,8.009,0,0,0,13,18ZM13,4a6,6,0,1,1-6,6A6.006,6.006,0,0,1,13,4Z"/><path d="M14,10.618,15.447,9.9l-.894-1.79-2,1A1,1,0,0,0,12,10v4h2Z"/></g><text x="0" y="79" fill="#000000" font-size="5px" font-weight="bold" font-family="'Helvetica Neue', Helvetica, Arial-Unicode, Arial, Sans-serif">Created by Chattapat</text><text x="0" y="84" fill="#000000" font-size="5px" font-weight="bold" font-family="'Helvetica Neue', Helvetica, Arial-Unicode, Arial, Sans-serif">from the Noun Project</text></svg>