<svg xmlns="http://www.w3.org/2000/svg" data-name="Layer 1" viewBox="0 0 128 160" x="0px" y="0px"><title>Miscellaneous 236_Expanded</title><path d="M61,49a2.0001,2.0001,0,0,0-2-2H43a2.0001,2.0001,0,0,0-2,2V65a2.0001,2.0001,0,0,0,2,2H59a2.0001,2.0001,0,0,0,2-2ZM57,63H45V51H57Z"/><path d="M59,73H43a2.0001,2.0001,0,0,0-2,2V91a2.0001,2.0001,0,0,0,2,2H59a2.0001,2.0001,0,0,0,2-2V75A2.0001,2.0001,0,0,0,59,73ZM57,89H45V77H57Z"/><path d="M17,73a2.0001,2.0001,0,0,0-2,2V91a2.0001,2.0001,0,0,0,2,2H33a2.0001,2.0001,0,0,0,2-2V75a2.0001,2.0001,0,0,0-2-2ZM31,89H19V77H31Z"/><rect x="37" y="16" width="54" height="4"/><path d="M104,30a9.01015,9.01015,0,0,0,9-9V15a9,9,0,0,0-18,0v6A9.01015,9.01015,0,0,0,104,30ZM99,15a5,5,0,0,1,10,0v6a5,5,0,0,1-10,0Z"/><path d="M24,30a9.01015,9.01015,0,0,0,9-9V15a9,9,0,0,0-18,0v6A9.01015,9.01015,0,0,0,24,30ZM19,15a5,5,0,0,1,10,0v6a5,5,0,0,1-10,0Z"/><path d="M87,57.46338V49a2.0001,2.0001,0,0,0-2-2H69a2.0001,2.0001,0,0,0-2,2V65a2.0001,2.0001,0,0,0,2,2h2.56012a35.28951,35.28951,0,0,1,4.46442-4H71V51H83v7.93121A34.71609,34.71609,0,0,1,87,57.46338Z"/><path d="M113,59.88733V49a2.0001,2.0001,0,0,0-2-2H95a2.0001,2.0001,0,0,0-2,2v7.23541A35.17382,35.17382,0,0,1,97,56V51h12v7.11987A34.78387,34.78387,0,0,1,113,59.88733Z"/><path d="M120,16h-3v4h3a4.00427,4.00427,0,0,1,4,4V36H4V24a4.00427,4.00427,0,0,1,4-4h3V16H8a8.00917,8.00917,0,0,0-8,8V96a8.00917,8.00917,0,0,0,8,8H64.51373a34.692,34.692,0,0,1-1.335-4H8a4.00427,4.00427,0,0,1-4-4V40H124V68.75275a35.12816,35.12816,0,0,1,4,6.02759V24A8.00917,8.00917,0,0,0,120,16Z"/><path d="M97,60a31,31,0,1,0,31,31A31.035,31.035,0,0,0,97,60Zm0,58a27,27,0,1,1,27-27A27.03078,27.03078,0,0,1,97,118Z"/><path d="M110.584,78.5874,90.05762,99.168,81.416,90.50391a2.00013,2.00013,0,0,0-2.832,2.8252l10.0576,10.08348a2.02246,2.02246,0,0,0,2.832,0l21.94238-22a2.00013,2.00013,0,0,0-2.832-2.8252Z"/><text x="0" y="143" fill="#000000" font-size="5px" font-weight="bold" font-family="'Helvetica Neue', Helvetica, Arial-Unicode, Arial, Sans-serif">Created by WEBTECHOPS LLP</text><text x="0" y="148" fill="#000000" font-size="5px" font-weight="bold" font-family="'Helvetica Neue', Helvetica, Arial-Unicode, Arial, Sans-serif">from the Noun Project</text></svg>