<svg xmlns="http://www.w3.org/2000/svg" xmlns:xlink="http://www.w3.org/1999/xlink" version="1.1" x="0px" y="0px" viewBox="0 0 512 640" style="enable-background:new 0 0 512 512;" xml:space="preserve"><g><path d="M462.2,398.5h-1.4V21.2c0-11.7-9.5-21.2-21.2-21.2C400.4,0,78.9,0,38.2,0C26.5,0,17,9.5,17,21.2v111.6v80.9v277.2   c0,11.7,9.5,21.2,21.2,21.2h401.5c11.7,0,21.2-9.5,21.2-21.2v-25.8c21.2,0,34.7-15.9,34.7-33.3   C495.5,413.4,480.6,398.5,462.2,398.5z M439.7,15.1c3.3,0,6,2.7,6,6v377.3h-28.9V21.2c0-2.1-0.3-4.1-0.9-6H439.7z M395.6,15.1   c3.3,0,6,2.7,6,6v377.3h-28.9V21.2c0-2.1-0.3-4.1-0.9-6H395.6z M357.6,490.8c0,3.3-2.7,6-6,6c-4.3,0-309.2,0-313.4,0   c-3.3,0-6-2.7-6-6V213.6v-80.9V21.2c0-3.3,2.7-6,6-6h313.4c3.3,0,6,2.7,6,6v377.3H219.7c-1,0-2.1,0.2-3,0.6L167,420.5   c-9.2,4.1-8.7,18.9,0,22.6l49.7,21.4c0.9,0.4,2,0.6,3,0.6h137.9V490.8z M212.1,417.5V446l-33.1-14.3L212.1,417.5z M401.6,490.8   c0,3.3-2.7,6-6,6h-23.8c0.6-1.9,0.9-3.9,0.9-6v-25.8h28.9V490.8z M445.7,490.8c0,3.3-2.7,6-6,6h-23.8c0.6-1.9,0.9-3.9,0.9-6v-25.8   h28.9V490.8z M460.8,449.9c-87.9,0-145.8,0-233.6,0v-10.6h184.2H427h51.7C475.8,445.7,469.8,449.9,460.8,449.9z M427,424.2h-15.6   H227.3v-10.6h234.9c7.3,0,13.6,4.4,16.5,10.6H427z"/><path d="M61.7,209.8c0,4.2,3.4,7.6,7.6,7.6h251.2c4.2,0,7.6-3.4,7.6-7.6s-3.4-7.6-7.6-7.6H69.3C65.1,202.3,61.7,205.6,61.7,209.8z"/><path d="M320.5,261.7h-37.3H261H69.3c-4.2,0-7.6,3.4-7.6,7.6s3.4,7.6,7.6,7.6H261h22.2h37.3c4.2,0,7.6-3.4,7.6-7.6   S324.6,261.7,320.5,261.7z"/><path d="M328,328.7c0-4.2-3.4-7.6-7.6-7.6H69.3c-4.2,0-7.6,3.4-7.6,7.6s3.4,7.6,7.6,7.6h251.2C324.6,336.2,328,332.8,328,328.7z"/><path d="M79.4,164.9h97.5c10.1,0,18.4-8.2,18.4-18.4V66.5c0-10.1-8.2-18.4-18.4-18.4H79.4c-10.1,0-18.4,8.2-18.4,18.4v80.1   C61.1,156.7,69.3,164.9,79.4,164.9z M103.4,149.8c7.8-14.1,16.5-21.3,19.4-23.5c3.5,0.7,7.1,0.7,10.8,0c2.8,2.1,11.6,9.4,19.4,23.5   H103.4z M114,97.6c0-7.8,6.3-14.1,14.1-14.1c7.8,0,14.1,6.3,14.1,14.1c0,7.8-6.3,14.1-14.1,14.1C120.4,111.7,114,105.4,114,97.6z    M76.2,66.5c0-1.7,1.5-3.2,3.2-3.2h97.5c1.7,0,3.2,1.5,3.2,3.2v80.1c0,1.7-1.5,3.2-3.2,3.2h-7.1c-0.5-1.7-8-18.1-21.6-30.9   c19.3-18.1,6.5-50.6-20-50.6c-26.4,0-39.3,32.5-20,50.6c-13,12.2-20.9,28.4-21.6,30.9h-7.1c-1.7,0-3.2-1.5-3.2-3.2V66.5z"/></g><text x="0" y="527" fill="#000000" font-size="5px" font-weight="bold" font-family="'Helvetica Neue', Helvetica, Arial-Unicode, Arial, Sans-serif">Created by Sandro Berger</text><text x="0" y="532" fill="#000000" font-size="5px" font-weight="bold" font-family="'Helvetica Neue', Helvetica, Arial-Unicode, Arial, Sans-serif">from the Noun Project</text></svg>