<svg xmlns="http://www.w3.org/2000/svg" viewBox="0 0 64 80" x="0px" y="0px"><title>Complaints icon</title><desc>Complaints icon for website, application, printing, document, poster design, etc.</desc><metadata><?xpacket begin="&#65279;" id="W5M0MpCehiHzreSzNTczkc9d"?><x:xmpmeta xmlns:x="adobe:ns:meta/" x:xmptk="Adobe XMP Core 5.6-c148 79.163820, 2019/02/20-18:54:02        "/><?xpacket end="w"?></metadata><g><g><path d="M25.36,50H10V4H48V8.26a1,1,0,0,0,2,0V3a1,1,0,0,0-1-1H9A1,1,0,0,0,8,3V51a1,1,0,0,0,1,1H25.36a1,1,0,0,0,0-2Z"/><path d="M48,31.74v1.32a1,1,0,0,0,2,0V31.74a1,1,0,1,0-2,0Z"/><path d="M42,34a13.89,13.89,0,0,0-8.25,2.71,1,1,0,1,0,1.18,1.61A11.88,11.88,0,0,1,42,36,12,12,0,1,1,30,48a11.88,11.88,0,0,1,2.32-7.07,1,1,0,1,0-1.61-1.18A14,14,0,1,0,42,34Z"/><path d="M37.05,53.05a1,1,0,0,0,1.41,1.41,5,5,0,0,1,7.08,0,1,1,0,0,0,.7.3A1,1,0,0,0,47,53.05a7,7,0,0,0-9.9,0Z"/><path d="M48.89,42.55a1,1,0,0,0-1.34-.44l-4,2a1,1,0,0,0-.44,1.34A1,1,0,0,0,44,46a.93.93,0,0,0,.45-.11l4-2A1,1,0,0,0,48.89,42.55Z"/><circle cx="47" cy="47" r="1"/><path d="M40.45,44.11l-4-2a1,1,0,1,0-.9,1.78l4,2A.93.93,0,0,0,40,46a1,1,0,0,0,.89-.55A1,1,0,0,0,40.45,44.11Z"/><circle cx="37" cy="47" r="1"/><path d="M40,12a1,1,0,0,0-1-1H20V9H39a1,1,0,0,0,0-2H19a1,1,0,0,0-1,1v4a1,1,0,0,0,1,1H39A1,1,0,0,0,40,12Z"/><path d="M35,18a1,1,0,0,0,0-2H22a1,1,0,0,0,0,2Z"/><path d="M15,22a1,1,0,0,0,1,1H35a1,1,0,0,0,0-2H16A1,1,0,0,0,15,22Z"/><path d="M38,27a1,1,0,0,0-1-1H16a1,1,0,0,0,0,2H37A1,1,0,0,0,38,27Z"/><path d="M16,31a1,1,0,0,0,0,2H34a1,1,0,0,0,0-2Z"/><path d="M27,36H16a1,1,0,0,0,0,2H27a1,1,0,0,0,0-2Z"/><path d="M25,43a1,1,0,0,0,0-2H16a1,1,0,0,0,0,2Z"/><path d="M38,20a9,9,0,1,0,9-9A9,9,0,0,0,38,20Zm16,0a7,7,0,1,1-7-7A7,7,0,0,1,54,20Z"/><path d="M44.88,16.46a1,1,0,0,0-1.42,1.42L45.59,20l-2.13,2.12a1,1,0,0,0,0,1.42,1,1,0,0,0,.71.29,1,1,0,0,0,.71-.29L47,21.41l2.12,2.13a1,1,0,0,0,.71.29,1,1,0,0,0,.71-.29,1,1,0,0,0,0-1.42L48.41,20l2.13-2.12a1,1,0,0,0-1.42-1.42L47,18.59Z"/></g></g><text x="0" y="79" fill="#000000" font-size="5px" font-weight="bold" font-family="'Helvetica Neue', Helvetica, Arial-Unicode, Arial, Sans-serif">Created by Tippawan Sookruay</text><text x="0" y="84" fill="#000000" font-size="5px" font-weight="bold" font-family="'Helvetica Neue', Helvetica, Arial-Unicode, Arial, Sans-serif">from the Noun Project</text></svg>