<svg xmlns="http://www.w3.org/2000/svg" xmlns:xlink="http://www.w3.org/1999/xlink" version="1.1" x="0px" y="0px" viewBox="0 0 100 125" style="enable-background:new 0 0 100 100;" xml:space="preserve"><path d="M80.3764648,2.1303711H19.6235352c-1.378418,0-2.5,1.121582-2.5,2.5v90.7392578c0,1.3789063,1.121582,2.5,2.5,2.5  h60.7529297c1.3789063,0,2.5-1.1210938,2.5-2.5V4.6303711C82.8764648,3.2519531,81.7553711,2.1303711,80.3764648,2.1303711z   M79.8764648,94.8696289H20.1235352V5.1303711h59.7529297V94.8696289z M20.78125,52.1518555c0-0.828125,0.6713867-1.5,1.5-1.5h1.5  c0.8284912,0,1.4998169,0.671814,1.499939,1.4996948c0,0.0001221,0.000061,0.0001831,0.000061,0.0003052  c0,0.828125-0.6713867,1.5-1.5,1.5h-1.5C21.4526367,53.6518555,20.78125,52.9799805,20.78125,52.1518555z M39.2041016,53.6518555  c-0.8286133,0-1.5-0.671875-1.5-1.5c0-0.0001221,0.000061-0.0001831,0.000061-0.0003052  c0.0001221-0.8278809,0.6714478-1.4996948,1.499939-1.4996948h3.0844727c0.8284912,0,1.4998169,0.671814,1.499939,1.4996948  c0,0.0001221,0.000061,0.0001831,0.000061,0.0003052c0,0.828125-0.6713867,1.5-1.5,1.5H39.2041016z M28.4506836,52.1518555  c0-0.0001221,0.000061-0.0001831,0.000061-0.0003052c0.0001221-0.8278809,0.6714478-1.4996948,1.499939-1.4996948h3.0844727  c0.8284912,0,1.4998169,0.671814,1.499939,1.4996948c0,0.0001221,0.000061,0.0001831,0.000061,0.0003052  c0,0.828125-0.6713867,1.5-1.5,1.5h-3.0844727C29.1220703,53.6518555,28.4506836,52.9799805,28.4506836,52.1518555z   M48.4580078,53.6518555c-0.8286133,0-1.5-0.671875-1.5-1.5c0-0.0001221,0.000061-0.0001831,0.000061-0.0003052  c0.0001221-0.8278809,0.6714478-1.4996948,1.499939-1.4996948h3.0844727c0.8280029,0,1.4998169,0.671814,1.499939,1.4996948  c0,0.0001221,0.000061,0.0001831,0.000061,0.0003052c0,0.828125-0.671875,1.5-1.5,1.5H48.4580078z M60.7954102,53.6518555  h-3.0839844c-0.828125,0-1.5-0.671875-1.5-1.5c0-0.0001221,0.000061-0.0001831,0.000061-0.0003052  c0.0001221-0.8278809,0.671936-1.4996948,1.499939-1.4996948h3.0839844c0.8280029,0,1.4998169,0.671814,1.499939,1.4996948  c0,0.0001221,0.000061,0.0001831,0.000061,0.0003052C62.2954102,52.9799805,61.6235352,53.6518555,60.7954102,53.6518555z   M66.965332,50.6518555h3.0839844c0.8280029,0,1.4998169,0.671814,1.499939,1.4996948  c0,0.0001221,0.000061,0.0001831,0.000061,0.0003052c0,0.828125-0.671875,1.5-1.5,1.5H66.965332c-0.828125,0-1.5-0.671875-1.5-1.5  c0-0.0001221,0.000061-0.0001831,0.000061-0.0003052C65.4655151,51.3236694,66.1373291,50.6518555,66.965332,50.6518555z   M74.7182617,52.1518555c0-0.0001221,0.000061-0.0001831,0.000061-0.0003052  c0.0001221-0.8278809,0.671936-1.4996948,1.499939-1.4996948h1.5c0.828125,0,1.5,0.671875,1.5,1.5s-0.671875,1.5-1.5,1.5h-1.5  C75.3901367,53.6518555,74.7182617,52.9799805,74.7182617,52.1518555z M49.9995117,43.8911133c8.8222656,0,16-7.1777344,16-16  s-7.1777344-16-16-16S34,19.0688477,34,27.8911133S41.1772461,43.8911133,49.9995117,43.8911133z M49.9995117,14.8911133  c7.1679688,0,13,5.831543,13,13c0,3.0444336-1.0595093,5.8416748-2.8189087,8.0595093L41.9401245,17.710144  C44.157959,15.9506836,46.9551392,14.8911133,49.9995117,14.8911133z M39.8190308,19.8312378l18.2405396,18.2405396  c-2.2180176,1.7597046-5.0155029,2.8193359-8.0600586,2.8193359c-7.1679688,0-12.9995117-5.831543-12.9995117-13  C37,24.8464966,38.0595093,22.0491333,39.8190308,19.8312378z M69.0454102,64.6518555c0-0.828125-0.671875-1.5-1.5-1.5  s-1.5,0.671875-1.5,1.5v1.1445313c-3.1065063,0.5072021-5.3956299,2.2086182-5.7041016,4.4980469  c-0.1533203,1.1376953,0.2197266,2.3271484,1.0498047,3.3476563c1.0458984,1.2854614,2.723938,2.2218018,4.6542969,2.6532593  v4.8636475c-1.4370728-0.1501465-2.722168-0.5950928-3.5517578-1.2620239  c-0.6425781-0.5195313-1.5888672-0.4169922-2.1083984,0.2275391s-0.4179688,1.5888672,0.2275391,2.1083984  c1.3534546,1.090271,3.2806396,1.7757568,5.4326172,1.9458618v1.0316772c0,0.828125,0.671875,1.5,1.5,1.5s1.5-0.671875,1.5-1.5  V84.055542c3.0790405-0.5244141,5.4004517-2.2428589,5.703125-4.4876709  c0.1601563-1.1855469-0.2001953-2.3886719-1.0136719-3.3886719c-1.0197144-1.2527466-2.6931763-2.1223145-4.6894531-2.4793701  v-4.9974976c1.4362793,0.1501465,2.7212524,0.5950928,3.5507813,1.2620239  c0.6445313,0.5214844,1.5898438,0.4179688,2.1083984-0.2275391c0.5195313-0.6445313,0.4179688-1.5888672-0.2275391-2.1083984  c-1.3532715-1.0900879-3.2800903-1.7755127-5.4316406-1.9457397V64.6518555z M66.0454102,73.194397  c-1.1099854-0.3599854-1.9025269-0.9241943-2.3271484-1.4458618c-0.1748047-0.2148438-0.4599609-0.6376953-0.4042969-1.0537109  c0.0890503-0.6594238,1.1210938-1.4451904,2.7314453-1.8253784V73.194397z M71.4077148,78.0727539  c0.2939453,0.3603516,0.4169922,0.7285156,0.3681641,1.0947266c-0.0895386,0.6576538-1.1256714,1.4394531-2.7304688,1.8203735  v-4.2255249C70.0818481,77.024353,70.9252319,77.4797363,71.4077148,78.0727539z M35.6425781,62.9311523h14.8569336  c0.828125,0,1.5,0.671875,1.5,1.5s-0.671875,1.5-1.5,1.5H35.6425781c-0.8286133,0-1.5-0.671875-1.5-1.5  S34.8139648,62.9311523,35.6425781,62.9311523z M28.6547852,68.1225586c2.0356445,0,3.6918945-1.65625,3.6918945-3.6914063  c0-2.0361328-1.65625-3.6923828-3.6918945-3.6923828s-3.6918945,1.65625-3.6918945,3.6923828  C24.9628906,66.4663086,26.6191406,68.1225586,28.6547852,68.1225586z M28.6547852,63.7387695  c0.3813477,0,0.6918945,0.3105469,0.6918945,0.6923828c0,0.3808594-0.3105469,0.6914063-0.6918945,0.6914063  s-0.6918945-0.3105469-0.6918945-0.6914063C27.9628906,64.0493164,28.2734375,63.7387695,28.6547852,63.7387695z   M51.9995117,85.4311523c0,0.828125-0.671875,1.5-1.5,1.5H35.6425781c-0.8286133,0-1.5-0.671875-1.5-1.5s0.6713867-1.5,1.5-1.5  h14.8569336C51.3276367,83.9311523,51.9995117,84.6030273,51.9995117,85.4311523z M28.6547852,81.7397461  c-2.0356445,0-3.6918945,1.65625-3.6918945,3.6914063s1.65625,3.6914063,3.6918945,3.6914063s3.6918945-1.65625,3.6918945-3.6914063  S30.6904297,81.7397461,28.6547852,81.7397461z M28.6547852,86.1225586c-0.3813477,0-0.6918945-0.3105469-0.6918945-0.6914063  s0.3105469-0.6914063,0.6918945-0.6914063s0.6918945,0.3105469,0.6918945,0.6914063S29.0361328,86.1225586,28.6547852,86.1225586z   M55.4936523,74.9311523c0,0.828125-0.671875,1.5-1.5,1.5H35.6425781c-0.8286133,0-1.5-0.671875-1.5-1.5s0.6713867-1.5,1.5-1.5  h18.3510742C54.8217773,73.4311523,55.4936523,74.1030273,55.4936523,74.9311523z M28.6547852,71.2387695  c-2.0356445,0-3.6918945,1.65625-3.6918945,3.6923828c0,2.0351563,1.65625,3.6914063,3.6918945,3.6914063  s3.6918945-1.65625,3.6918945-3.6914063C32.3466797,72.8950195,30.6904297,71.2387695,28.6547852,71.2387695z   M28.6547852,75.6225586c-0.3813477,0-0.6918945-0.3105469-0.6918945-0.6914063  c0-0.3818359,0.3105469-0.6923828,0.6918945-0.6923828s0.6918945,0.3105469,0.6918945,0.6923828  C29.3466797,75.3120117,29.0361328,75.6225586,28.6547852,75.6225586z"/><text x="0" y="115" fill="#000000" font-size="5px" font-weight="bold" font-family="'Helvetica Neue', Helvetica, Arial-Unicode, Arial, Sans-serif">Created by Llisole</text><text x="0" y="120" fill="#000000" font-size="5px" font-weight="bold" font-family="'Helvetica Neue', Helvetica, Arial-Unicode, Arial, Sans-serif">from the Noun Project</text></svg>