<svg xmlns="http://www.w3.org/2000/svg"
    xmlns:xlink="http://www.w3.org/1999/xlink" version="1.1" x="0px" y="0px" viewBox="0 0 24 30" style="enable-background:new 0 0 24 24;" xml:space="preserve">
    <g>
        <path d="M3.917,10.666H2.736c-0.221,0-0.4,0.179-0.4,0.4s0.179,0.4,0.4,0.4h1.181c0.221,0,0.4-0.179,0.4-0.4   S4.138,10.666,3.917,10.666z"/>
        <path d="M6.958,10.666H5.778c-0.221,0-0.4,0.179-0.4,0.4s0.179,0.4,0.4,0.4h1.181c0.221,0,0.4-0.179,0.4-0.4   S7.179,10.666,6.958,10.666z"/>
        <path d="M10,10.666H8.819c-0.221,0-0.4,0.179-0.4,0.4s0.179,0.4,0.4,0.4H10c0.221,0,0.4-0.179,0.4-0.4   S10.221,10.666,10,10.666z"/>
        <path d="M13.041,10.666H11.86c-0.221,0-0.4,0.179-0.4,0.4s0.179,0.4,0.4,0.4h1.181c0.221,0,0.4-0.179,0.4-0.4   S13.262,10.666,13.041,10.666z"/>
        <path d="M16.083,11.465c0.221,0,0.4-0.179,0.4-0.4s-0.18-0.4-0.4-0.4h-1.182c-0.221,0-0.4,0.179-0.4,0.4   s0.18,0.4,0.4,0.4H16.083z"/>
        <path d="M17.942,11.465h1.182c0.221,0,0.4-0.179,0.4-0.4s-0.18-0.4-0.4-0.4h-1.182c-0.221,0-0.4,0.179-0.4,0.4   S17.722,11.465,17.942,11.465z"/>
        <path d="M3.917,14.136H2.736c-0.221,0-0.4,0.18-0.4,0.4s0.179,0.4,0.4,0.4h1.181c0.221,0,0.4-0.18,0.4-0.4   S4.138,14.136,3.917,14.136z"/>
        <path d="M6.958,14.136H5.778c-0.221,0-0.4,0.18-0.4,0.4s0.179,0.4,0.4,0.4h1.181c0.221,0,0.4-0.18,0.4-0.4   S7.179,14.136,6.958,14.136z"/>
        <path d="M10,14.136H8.819c-0.221,0-0.4,0.18-0.4,0.4s0.179,0.4,0.4,0.4H10c0.221,0,0.4-0.18,0.4-0.4   S10.221,14.136,10,14.136z"/>
        <path d="M13.041,14.136H11.86c-0.221,0-0.4,0.18-0.4,0.4s0.179,0.4,0.4,0.4h1.181c0.221,0,0.4-0.18,0.4-0.4   S13.262,14.136,13.041,14.136z"/>
        <path d="M3.917,17.605H2.736c-0.221,0-0.4,0.18-0.4,0.4s0.179,0.4,0.4,0.4h1.181c0.221,0,0.4-0.18,0.4-0.4   S4.138,17.605,3.917,17.605z"/>
        <path d="M6.958,17.605H5.778c-0.221,0-0.4,0.18-0.4,0.4s0.179,0.4,0.4,0.4h1.181c0.221,0,0.4-0.18,0.4-0.4   S7.179,17.605,6.958,17.605z"/>
        <path d="M10,17.605H8.819c-0.221,0-0.4,0.18-0.4,0.4s0.179,0.4,0.4,0.4H10c0.221,0,0.4-0.18,0.4-0.4   S10.221,17.605,10,17.605z"/>
        <path d="M13.041,17.605H11.86c-0.221,0-0.4,0.18-0.4,0.4s0.179,0.4,0.4,0.4h1.181c0.221,0,0.4-0.18,0.4-0.4   S13.262,17.605,13.041,17.605z"/>
        <path d="M23.966,17.082c0-2.064-1.397-3.857-3.356-4.407v-4.99c0.363-0.253,0.603-0.672,0.603-1.148V5.13   c0-0.772-0.629-1.4-1.4-1.4h-1.974V2.479c0-0.221-0.18-0.4-0.4-0.4s-0.4,0.179-0.4,0.4V3.73h-3.538V2.479c0-0.221-0.18-0.4-0.4-0.4   s-0.4,0.179-0.4,0.4V3.73H9.161V2.479c0-0.221-0.179-0.4-0.4-0.4s-0.4,0.179-0.4,0.4V3.73H4.823V2.479c0-0.221-0.179-0.4-0.4-0.4   s-0.4,0.179-0.4,0.4V3.73H2.048c-0.772,0-1.4,0.628-1.4,1.4v1.407c0,0.476,0.239,0.895,0.603,1.148v14.661   c0,0.221,0.179,0.4,0.4,0.4h18.558c0.221,0,0.4-0.18,0.4-0.4v-0.858C22.569,20.938,23.966,19.144,23.966,17.082z M1.448,5.13   c0-0.331,0.269-0.6,0.6-0.6h1.975v1c-0.206,0.134-0.35,0.355-0.35,0.619c0,0.414,0.336,0.75,0.75,0.75s0.75-0.336,0.75-0.75   c0-0.264-0.144-0.485-0.351-0.619V4.53h3.539v0.999C8.155,5.663,8.011,5.884,8.011,6.148c0,0.414,0.336,0.75,0.75,0.75   c0.414,0,0.75-0.336,0.75-0.75c0-0.264-0.144-0.485-0.35-0.619v-1h3.538v1c-0.206,0.134-0.35,0.355-0.35,0.618   c0,0.414,0.336,0.75,0.75,0.75c0.414,0,0.75-0.336,0.75-0.75c0-0.264-0.144-0.485-0.35-0.619v-1h3.538v1   c-0.206,0.134-0.35,0.355-0.35,0.619c0,0.414,0.336,0.75,0.75,0.75c0.414,0,0.75-0.336,0.75-0.75c0-0.264-0.144-0.484-0.35-0.618   v-1h1.974c0.331,0,0.6,0.269,0.6,0.6v1.407c0,0.331-0.269,0.6-0.6,0.6H2.048c-0.331,0-0.6-0.269-0.6-0.6V5.13z M2.051,21.946V7.937   h17.757v4.595c-0.146-0.014-0.29-0.044-0.438-0.044c-2.533,0-4.594,2.061-4.594,4.594s2.061,4.594,4.594,4.594   c0.147,0,0.291-0.03,0.438-0.044v0.315H2.051z M20.137,20.799c-0.25,0.051-0.508,0.076-0.766,0.076   c-2.092,0-3.793-1.701-3.793-3.793s1.701-3.794,3.793-3.794c0.256,0,0.511,0.025,0.759,0.075c1.759,0.356,3.035,1.92,3.035,3.719   C23.165,18.877,21.892,20.439,20.137,20.799z"/>
        <path d="M19.771,16.36v-2.349c0-0.221-0.18-0.4-0.4-0.4s-0.4,0.18-0.4,0.4v2.349   c-0.136,0.076-0.245,0.185-0.321,0.321h-1.213c-0.221,0-0.4,0.18-0.4,0.4s0.18,0.4,0.4,0.4h1.213   c0.143,0.256,0.407,0.437,0.721,0.437c0.462,0,0.837-0.375,0.837-0.837C20.209,16.767,20.028,16.503,19.771,16.36z"/>
    </g>
    <text x="0" y="39" fill="#000000" font-size="5px" font-weight="bold" font-family="'Helvetica Neue', Helvetica, Arial-Unicode, Arial, Sans-serif">Created by myiconfinder</text>
    <text x="0" y="44" fill="#000000" font-size="5px" font-weight="bold" font-family="'Helvetica Neue', Helvetica, Arial-Unicode, Arial, Sans-serif"></text>
</svg>